<mxfile host="Electron" modified="2024-03-12T23:22:39.657Z" agent="Mozilla/5.0 (Macintosh; Intel Mac OS X 10_15_7) AppleWebKit/537.36 (KHTML, like Gecko) draw.io/21.2.8 Chrome/112.0.5615.165 Electron/24.2.0 Safari/537.36" etag="e8QltQ8HM_4WpA54dW15" version="21.2.8" type="device">
  <diagram name="Page-1" id="1YjFLozojRHW1VTXkCYH">
    <mxGraphModel dx="954" dy="598" grid="1" gridSize="10" guides="1" tooltips="1" connect="1" arrows="1" fold="1" page="1" pageScale="1" pageWidth="827" pageHeight="1169" math="0" shadow="0">
      <root>
        <mxCell id="0" />
        <mxCell id="1" parent="0" />
        <mxCell id="HwrPeeGseDl22EO4fITz-1" value="Me roo!" style="shape=callout;whiteSpace=wrap;html=1;perimeter=calloutPerimeter;flipH=1;strokeWidth=2;fillColor=#f5f5f5;fontColor=#333333;strokeColor=#666666;" parent="1" vertex="1">
          <mxGeometry x="280" y="50" width="120" height="120" as="geometry" />
        </mxCell>
        <mxCell id="HwrPeeGseDl22EO4fITz-2" value="Gaza verified" style="shape=umlActor;verticalLabelPosition=bottom;verticalAlign=top;html=1;outlineConnect=0;strokeWidth=3;" parent="1" vertex="1">
          <mxGeometry x="70" y="220" width="30" height="60" as="geometry" />
        </mxCell>
        <mxCell id="HwrPeeGseDl22EO4fITz-3" value="Has anyone seen&lt;br&gt;my 14 year old boy?&lt;br&gt;&lt;br&gt;Picture&lt;br&gt;&lt;br&gt;&lt;br&gt;&lt;br&gt;" style="shape=callout;whiteSpace=wrap;html=1;perimeter=calloutPerimeter;strokeWidth=2;" parent="1" vertex="1">
          <mxGeometry x="50" y="60" width="120" height="160" as="geometry" />
        </mxCell>
        <mxCell id="HwrPeeGseDl22EO4fITz-4" value="" style="group" parent="1" vertex="1" connectable="0">
          <mxGeometry x="95" y="140" width="30" height="30" as="geometry" />
        </mxCell>
        <mxCell id="HwrPeeGseDl22EO4fITz-5" value="" style="rounded=0;whiteSpace=wrap;html=1;" parent="HwrPeeGseDl22EO4fITz-4" vertex="1">
          <mxGeometry width="30" height="30" as="geometry" />
        </mxCell>
        <mxCell id="HwrPeeGseDl22EO4fITz-6" value="" style="endArrow=none;html=1;rounded=0;exitX=0;exitY=1;exitDx=0;exitDy=0;entryX=1;entryY=0;entryDx=0;entryDy=0;" parent="HwrPeeGseDl22EO4fITz-4" source="HwrPeeGseDl22EO4fITz-5" target="HwrPeeGseDl22EO4fITz-5" edge="1">
          <mxGeometry width="50" height="50" relative="1" as="geometry">
            <mxPoint x="18" y="24" as="sourcePoint" />
            <mxPoint x="48" y="-6" as="targetPoint" />
          </mxGeometry>
        </mxCell>
        <mxCell id="HwrPeeGseDl22EO4fITz-7" value="" style="endArrow=none;html=1;rounded=0;entryX=0;entryY=0;entryDx=0;entryDy=0;exitX=1;exitY=1;exitDx=0;exitDy=0;" parent="HwrPeeGseDl22EO4fITz-4" source="HwrPeeGseDl22EO4fITz-5" target="HwrPeeGseDl22EO4fITz-5" edge="1">
          <mxGeometry width="50" height="50" relative="1" as="geometry">
            <mxPoint x="18" y="24" as="sourcePoint" />
            <mxPoint x="48" y="-6" as="targetPoint" />
          </mxGeometry>
        </mxCell>
        <mxCell id="HwrPeeGseDl22EO4fITz-8" value="Gaza verified" style="shape=umlActor;verticalLabelPosition=bottom;verticalAlign=top;html=1;outlineConnect=0;strokeWidth=3;" parent="1" vertex="1">
          <mxGeometry x="260" y="220" width="30" height="60" as="geometry" />
        </mxCell>
        <mxCell id="HwrPeeGseDl22EO4fITz-9" value="I saw him at X,Y&lt;br&gt;yesterday..." style="shape=callout;whiteSpace=wrap;html=1;perimeter=calloutPerimeter;flipH=1;strokeWidth=2;fillColor=#f5f5f5;fontColor=#333333;strokeColor=#666666;" parent="1" vertex="1">
          <mxGeometry x="190" y="100" width="120" height="120" as="geometry" />
        </mxCell>
        <mxCell id="HwrPeeGseDl22EO4fITz-10" value="Gaza verified" style="shape=umlActor;verticalLabelPosition=bottom;verticalAlign=top;html=1;outlineConnect=0;strokeWidth=3;" parent="1" vertex="1">
          <mxGeometry x="350" y="170" width="30" height="60" as="geometry" />
        </mxCell>
        <mxCell id="yE3wPZMf2WZGM2eF1f_8-1" value="request" style="text;html=1;strokeColor=none;fillColor=none;align=right;verticalAlign=middle;whiteSpace=wrap;rounded=0;textOpacity=50;" parent="1" vertex="1">
          <mxGeometry x="110" y="30" width="60" height="30" as="geometry" />
        </mxCell>
        <mxCell id="yE3wPZMf2WZGM2eF1f_8-2" value="response" style="text;html=1;strokeColor=none;fillColor=none;align=left;verticalAlign=middle;whiteSpace=wrap;rounded=0;textOpacity=50;" parent="1" vertex="1">
          <mxGeometry x="190" y="70" width="60" height="30" as="geometry" />
        </mxCell>
        <mxCell id="yE3wPZMf2WZGM2eF1f_8-3" value="response" style="text;html=1;strokeColor=none;fillColor=none;align=left;verticalAlign=middle;whiteSpace=wrap;rounded=0;textOpacity=50;" parent="1" vertex="1">
          <mxGeometry x="280" y="20" width="60" height="30" as="geometry" />
        </mxCell>
      </root>
    </mxGraphModel>
  </diagram>
</mxfile>
